# xmcd
#
# Track frame offsets: 
#        150
#        18318
#        33229
#        51994
#        76570
#        93466
#        112604
#        131859
#        146199
#        167644
#        185029
#        202096
#        220511
#        241745
#
# Disc length: 3463 seconds
#
# Revision: 1
# Processed by: cddbd v1.5.2PL0 Copyright (c) Steve Scherf et al.
# Submitted via: ExactAudioCopyFreeDBPlugin 1.0
#
DISCID=b90d850e
DTITLE=Keyshia Cole - The Way It Is
DYEAR=2005
DGENRE=R&B
TTITLE0=(I Just Want It) To Be Over
TTITLE1=I Changed My Mind
TTITLE2=Love, I Thought You Had My Back
TTITLE3=I Should Have Cheated
TTITLE4=Guess What? (feat. Jadakiss)
TTITLE5=Love
TTITLE6=You've Changed
TTITLE7=We Could Be
TTITLE8=Situations (feat. Chink Santana)
TTITLE9=Down And Dirty
TTITLE10=Superstar (feat. Metro City)
TTITLE11=Never (feat. Eve)
TTITLE12=Love (Live AOL Session) [Bonus Track]
TTITLE13=I Changed My Mind (feat. Shyne) [Bonus Track]
EXTD=Keyshia Cole's Debut Album
EXTT0=
EXTT1=
EXTT2=
EXTT3=
EXTT4=
EXTT5=
EXTT6=
EXTT7=
EXTT8=
EXTT9=
EXTT10=
EXTT11=
EXTT12=
EXTT13=
PLAYORDER=
